<?xml version="1.0" encoding="iso-8859-1"?>
<!-- Uploaded to: SVG Repo, www.svgrepo.com, Generator: SVG Repo Mixer Tools -->
<svg fill="#000000" height="800px" width="800px" version="1.1" id="Layer_1" xmlns="http://www.w3.org/2000/svg" xmlns:xlink="http://www.w3.org/1999/xlink" 
	 viewBox="0 0 511.999 511.999" xml:space="preserve">
<g>
	<g>
		<path d="M255.999,0C159.551,0,81.085,78.467,81.085,174.915c0,34.941,10.276,68.677,29.718,97.558
			c29.979,44.534,45.826,96.316,45.826,149.779c0,22.002,16.583,40.192,37.905,42.756c7.362,27.043,32.121,46.991,61.465,46.991
			s54.102-19.947,61.465-46.991c21.321-2.566,37.906-20.758,37.906-42.792c0-53.43,15.847-105.211,45.826-149.747
			c19.442-28.881,29.718-62.616,29.718-97.557C430.914,78.467,352.447,0,255.999,0z M255.999,477.927
			c-10.004,0-18.865-4.983-24.234-12.597h48.467C274.864,472.945,266.003,477.927,255.999,477.927z M372.93,253.444
			c-33.779,50.18-51.633,108.539-51.633,168.808c0,4.966-4.04,9.006-9.007,9.006H199.709c-4.967,0-9.007-4.041-9.007-9.041
			c0-60.233-17.855-118.594-51.633-168.773c-15.643-23.237-23.911-50.393-23.911-78.531c0-77.659,63.181-140.841,140.841-140.841
			S396.84,97.254,396.84,174.915C396.841,203.052,388.573,230.208,372.93,253.444z"/>
	</g>
</g>
<g>
	<g>
		<path d="M304.536,173.421h-19.16l12.047-58.897c2.193-10.716-3.474-21.704-13.481-26.134c-10.274-4.543-22.042-1.091-28.396,7.599
			l-78.065,106.738c-13.183,18.023-0.293,43.416,22.035,43.416h19.16l-12.047,58.9c-2.191,10.715,3.478,21.702,13.483,26.13
			c10.191,4.507,21.984,1.169,28.397-7.599l78.066-106.739C339.753,198.811,326.864,173.421,304.536,173.421z M249.776,264.123
			l6.464-31.6c2.16-10.56-5.922-20.45-16.691-20.45H212.86l41.416-56.629l-6.464,31.6c-2.16,10.56,5.922,20.45,16.691,20.45h26.689
			L249.776,264.123z"/>
	</g>
</g>
</svg>